<?xml version="1.0" encoding="UTF-8"?>
<svg xmlns="http://www.w3.org/2000/svg" xmlns:xlink="http://www.w3.org/1999/xlink" viewBox="0 0 249.9 218.1">
  <defs>
    <linearGradient id="linear-gradient" x1="25.9" y1="185.4" x2="17.6" y2="153.8" gradientUnits="userSpaceOnUse">
      <stop offset="0" stop-color="#fff"/>
      <stop offset="1" stop-color="#000"/>
    </linearGradient>
  </defs>
  <g style="isolation: isolate;">
    <g id="Layer_1" data-name="Layer 1">
      <path d="m45.3,165.3L2.8,185.1c-1.5.7-1.7,2.1-.3,3.1l40.2,29.4c1.4,1,2.5.4,2.5-1.3v-51.1Z" style="fill: #940000;"/>
      <path d="m45.3,165.3L2.8,185.1c-1.5.7-1.7,2.1-.3,3.1l40.2,29.4c1.4,1,2.5.4,2.5-1.3v-51.1Z" style="fill: url(#linear-gradient); mix-blend-mode: multiply;"/>
      <path d="m2.8,185.1l2.2-1h0s-4.9-.2-4.9-.2c0,0,0,1.8,1.7,3.5-.5-.8,0-1.8,1.1-2.3Z" style="fill: #d90000;"/>
      <path d="m2.8,185.1l244.8-114.2c3.1-1.4,3-3.6-.2-4.8-12.6-4.9-41.6-16.1-41.6-16.1-1.6-.6-2.4-2.4-1.9-4,0,0,10-29.4,14.4-42.2,1.1-3.2-.5-4.7-3.6-3.2L4.2,98.8c-2.3,1.1-4.2,4-4.2,6.6v78c0,1.7,1.3,2.5,2.8,1.8Z" style="fill: #d90000;"/>
      <g>
        <path d="m13.9,117.8l18.3-8.5c3-1.4,5.7-1.8,8.1-1,2.3.7,4,2.2,5.1,4.5.9,1.9,1,3.7.5,5.6-.4,1.3-1.2,2.5-2.4,3.7,2.5-.5,4.6-.4,6.3.5,1.7.8,3,2.3,3.9,4.3.8,1.6,1.1,3.3.9,5-.1,1.7-.7,3.2-1.7,4.6-.6.9-1.7,1.8-3.2,2.8-2.1,1.3-3.5,2.1-4.2,2.5l-16.9,7.9-14.7-31.6Zm15.6,7.8l4.2-2c1.5-.7,2.5-1.5,2.8-2.3.4-.8.3-1.7-.2-2.7-.4-.9-1.1-1.5-1.9-1.7-.8-.2-2,0-3.5.7l-4.3,2,2.8,6Zm5.8,12.4l5-2.3c1.7-.8,2.7-1.6,3.1-2.6.4-.9.4-1.9,0-2.9-.4-.9-1.1-1.5-2.1-1.8-.9-.2-2.3,0-4,.8l-5,2.3,3,6.4Z" style="fill: #fff;"/>
        <path d="m54.4,118.2c-2.4-5.2-2.8-9.8-1.3-14.1,1.5-4.2,4.9-7.5,10-9.9,5.3-2.5,10-2.9,14.1-1.4,4.2,1.5,7.4,4.8,9.8,9.9,1.7,3.7,2.5,7,2.4,10-.1,2.9-1.1,5.6-2.8,8-1.7,2.4-4.4,4.4-7.9,6.1-3.6,1.7-6.8,2.5-9.6,2.4-2.9,0-5.6-1-8.2-2.7-2.6-1.8-4.8-4.5-6.5-8.2Zm9.8-4.5c1.5,3.2,3.1,5.2,5,6,1.8.8,3.8.8,5.8-.2,2.1-1,3.4-2.4,3.9-4.3.5-1.9,0-4.6-1.7-8.2-1.4-3-3-4.9-4.8-5.7-1.8-.8-3.8-.7-5.8.2-2,.9-3.2,2.4-3.8,4.3-.5,1.9,0,4.5,1.4,7.8Z" style="fill: #fff;"/>
        <path d="m85.1,84.6l9.1-4.3,20.1,11.9-8.2-17.5,9.2-4.3,14.7,31.6-9.2,4.3-19.9-11.8,8.1,17.4-9.2,4.3-14.7-31.6Z" style="fill: #fff;"/>
        <path d="m142.3,57.9l9.7-4.5,8.8,18.8c.9,1.9,1.4,3.8,1.6,5.7.2,1.9,0,3.8-.7,5.6-.7,1.8-1.6,3.3-2.7,4.4-1.6,1.6-3.7,3-6.3,4.2-1.5.7-3.3,1.4-5.2,2-1.9.6-3.6.9-5.2.8-1.5,0-3.1-.5-4.6-1.2-1.6-.7-2.8-1.6-3.8-2.7-1.5-1.7-2.7-3.4-3.4-4.9l-8.8-18.8,9.7-4.5,9,19.3c.8,1.7,1.9,2.8,3.3,3.4,1.4.5,3,.4,4.7-.4,1.7-.8,2.8-1.9,3.3-3.3.5-1.4.4-3-.5-4.7l-9-19.3Z" style="fill: #fff;"/>
        <path d="m166.7,72.3l9-4.9c.9,1.4,1.9,2.4,2.8,2.9,1.6.8,3.3.8,5.2,0,1.4-.6,2.3-1.5,2.8-2.5.4-1,.5-1.9,0-2.8-.4-.8-1.1-1.4-2.1-1.7-1-.3-3-.1-5.9.5-4.7,1-8.4,1.2-11,.4-2.6-.7-4.4-2.3-5.6-4.8-.8-1.6-1-3.4-.7-5.3.3-1.9,1.2-3.7,2.7-5.4,1.5-1.7,3.9-3.3,7.2-4.9,4-1.9,7.5-2.6,10.3-2.1,2.8.5,5.2,2.3,7.1,5.4l-9,4.8c-.9-1.3-1.9-2.1-3-2.4-1.1-.3-2.3,0-3.7.5-1.1.5-1.9,1.2-2.2,1.9-.4.7-.4,1.5,0,2.2.2.5.7.8,1.3,1,.7.2,1.9,0,3.8-.4,4.7-1.1,8.2-1.6,10.5-1.5,2.3,0,4.2.6,5.7,1.6,1.5,1,2.6,2.4,3.4,4.1.9,2,1.3,4.2.9,6.4-.3,2.2-1.3,4.3-2.9,6.1-1.6,1.8-3.9,3.4-7,4.9-5.4,2.5-9.6,3.2-12.6,2.1-3-1.1-5.4-3.2-7.2-6.3Z" style="fill: #fff;"/>
      </g>
    </g>
  </g>
</svg>