<?xml version="1.0" encoding="UTF-8"?>
<svg id="Layer_1" data-name="Layer 1" xmlns="http://www.w3.org/2000/svg" viewBox="0 0 121.7 113.6">
  <path d="m109.1,24.4h-11.4c-2.4,0-4.4,2-4.4,4.4v2.5h-15.3c-1,0-1.8.8-1.8,1.8s.8,1.8,1.8,1.8h15.3v52.9c0,2.4,2,4.4,4.4,4.4h11.4c5,0,9,4.1,9,9s-4.1,9-9,9H12.5c-5,0-9-4.1-9-9s4.1-9,9-9h10.6c2.4,0,4.4-2,4.4-4.4v-52.9h15.3c1,0,1.8-.8,1.8-1.8s-.8-1.8-1.8-1.8h-15.3v-2.5c0-2.4-2-4.4-4.4-4.4h-10.6c-6.9,0-12.5,5.6-12.5,12.5v64.1c0,6.9,5.6,12.5,12.5,12.5h96.6c6.9,0,12.5-5.6,12.5-12.5V37c0-6.9-5.6-12.5-12.5-12.5ZM3.5,37c0-5,4.1-9,9-9h10.6c.5,0,.9.4.9.9v58.9c0,.5-.4.9-.9.9h-10.6c-3.5,0-6.8,1.5-9,3.9v-55.4Zm114.7,55.4c-2.3-2.4-5.5-3.9-9-3.9h-11.4c-.5,0-.9-.4-.9-.9V28.8c0-.5.4-.9.9-.9h11.4c5,0,9,4.1,9,9v55.4Z" style="fill: #fff;"/>
  <g>
    <path d="m80.2,80.5l-10.5-49.6c2.6-2.4,4.3-5.8,4.3-9.6,0-6.5-4.9-11.9-11.2-12.8V1.8c0-1-.8-1.8-1.8-1.8s-1.8.8-1.8,1.8v6.8c-6.3.9-11.2,6.3-11.2,12.8s1.5,6.8,3.8,9.2l-10.5,50c-.5,2.3.6,4.7,2.6,5.8l-1,4.6c-.2.9.4,1.9,1.4,2.1.1,0,.2,0,.4,0,.8,0,1.5-.6,1.7-1.4l1-4.6c.8,0,1.6-.4,2.3-.8,1.2-.8,2.1-2,2.4-3.5l8.7-41.1,8.7,41.1c.5,2.3,2.4,4,4.7,4.3l1,4.7c.2.8.9,1.4,1.7,1.4s.2,0,.4,0c.9-.2,1.6-1.1,1.4-2.1l-1-4.7c.7-.4,1.3-1,1.8-1.7.8-1.2,1.1-2.7.8-4.1Zm-28.5-59.2c0-5.2,4.2-9.4,9.4-9.4s9.4,4.2,9.4,9.4-4.2,9.4-9.4,9.4-9.4-4.2-9.4-9.4Zm-2.9,60.7c-.1.5-.4,1-.8,1.2-.4.3-1,.4-1.5.3,0,0,0,0,0,0,0,0,0,0,0,0-1.1-.2-1.7-1.3-1.5-2.3l10.2-48.5c1.2.6,2.4,1,3.8,1.3l-10.1,48Zm24.2,0l-10.1-47.9c1.3-.2,2.6-.6,3.8-1.1l10.2,48.2c.1.5,0,1-.3,1.5-.3.4-.7.7-1.2.9,0,0,0,0,0,0,0,0,0,0,0,0-1.1.2-2.1-.5-2.3-1.5Z" style="fill: #fff;"/>
    <path d="m61.1,26.8c3,0,5.5-2.5,5.5-5.5s-2.5-5.5-5.5-5.5-5.5,2.5-5.5,5.5,2.5,5.5,5.5,5.5Zm0-7.4c1.1,0,2,.9,2,2s-.9,2-2,2-2-.9-2-2,.9-2,2-2Z" style="fill: #fff;"/>
  </g>
</svg>