<?xml version="1.0" encoding="utf-8"?>
<!-- Generator: Adobe Illustrator 24.3.0, SVG Export Plug-In . SVG Version: 6.00 Build 0)  -->
<svg version="1.1" id="SvgjsSvg1011" xmlns:svgjs="http://svgjs.com/svgjs"
	 xmlns="http://www.w3.org/2000/svg" xmlns:xlink="http://www.w3.org/1999/xlink" x="0px" y="0px" viewBox="0 0 288 288"
	 style="enable-background:new 0 0 288 288;" xml:space="preserve">
<style type="text/css">
	.st0{fill:#FFFFFF;}
</style>
<g>
	<g>
		<path class="st0" d="M232,286.4H56c-7.3,0-14.4-1.4-21.1-4.3c-6.5-2.7-12.3-6.7-17.3-11.6c-5-5-8.9-10.8-11.6-17.3
			c-2.8-6.7-4.3-13.8-4.3-21.1V56c0-7.3,1.4-14.4,4.3-21.1c2.7-6.5,6.7-12.3,11.6-17.3c5-5,10.8-8.9,17.3-11.6
			C41.5,3.1,48.6,1.6,56,1.6H232c7.3,0,14.4,1.4,21.1,4.3c6.5,2.7,12.3,6.7,17.3,11.6c5,5,8.9,10.8,11.6,17.3
			c2.8,6.7,4.3,13.8,4.3,21.1V232c0,7.3-1.4,14.4-4.3,21.1c-2.7,6.5-6.7,12.3-11.6,17.3s-10.8,8.9-17.3,11.6
			C246.5,284.9,239.4,286.4,232,286.4z M56,14c-23.1,0-42,18.8-42,42V232c0,23.1,18.8,42,42,42H232c23.1,0,42-18.8,42-42V56
			c0-23.1-18.8-42-42-42H56z"/>
	</g>
	<g>
		<path class="st0" d="M144,219.3c-10.1,0-20-2-29.2-5.9c-8.9-3.8-17-9.2-23.9-16.1c-6.9-6.9-12.3-14.9-16.1-23.9
			c-3.9-9.3-5.9-19.1-5.9-29.2c0-10.1,2-20,5.9-29.2c3.8-8.9,9.2-17,16.1-23.9c6.9-6.9,14.9-12.3,23.9-16.1C124,71,133.9,69,144,69
			c10.1,0,20,2,29.2,5.9c8.9,3.8,17,9.2,23.9,16.1c6.9,6.9,12.3,14.9,16.1,23.9c3.9,9.3,5.9,19.1,5.9,29.2c0,10.1-2,20-5.9,29.2
			c-3.8,8.9-9.2,17-16.1,23.9c-6.9,6.9-14.9,12.3-23.9,16.1C164,217.3,154.1,219.3,144,219.3z M144,83.3
			c-33.5,0-60.8,27.3-60.8,60.8c0,33.5,27.3,60.8,60.8,60.8c33.5,0,60.8-27.3,60.8-60.8C204.8,110.6,177.5,83.3,144,83.3z"/>
	</g>
	<g>
		<circle class="st0" cx="228.5" cy="62.1" r="12"/>
		<path class="st0" d="M228.5,81.2c-10.6,0-19.1-8.6-19.1-19.1s8.6-19.1,19.1-19.1s19.1,8.6,19.1,19.1S239.1,81.2,228.5,81.2z
			 M228.5,57.3c-2.7,0-4.8,2.2-4.8,4.8c0,2.7,2.2,4.8,4.8,4.8s4.8-2.2,4.8-4.8C233.3,59.4,231.2,57.3,228.5,57.3z"/>
	</g>
</g>
</svg>
