<?xml version="1.0" encoding="utf-8"?>
<!-- Generator: Adobe Illustrator 24.3.0, SVG Export Plug-In . SVG Version: 6.00 Build 0)  -->
<svg version="1.1" id="SvgjsSvg1011" xmlns:svgjs="http://svgjs.com/svgjs"
	 xmlns="http://www.w3.org/2000/svg" xmlns:xlink="http://www.w3.org/1999/xlink" x="0px" y="0px" viewBox="0 0 288 288"
	 style="enable-background:new 0 0 288 288;" xml:space="preserve">
<style type="text/css">
	.st0{fill:#FFFFFF;}
</style>
<path class="st0" d="M256.4,118.9c-21.4-1.5-42.6-10.7-56.1-23.6v105.6c0,49.3-43.2,87-92.5,87s-89.4-40.9-89.4-90.3
	s38.4-85.5,77.1-90.6c11.5-1.5,25.8,0,26.4,0.1l0,48.5c0,0-4.4-0.9-8-0.7c-24.7,1.5-45.9,15.2-45.9,42.3c0,26.1,20.1,41.8,41.2,41.8
	c25.2,0,42.4-21.1,42.4-39.2L152,0.1h48c3.9,43.1,31.8,67.3,69.7,70v48.9C269.7,119.1,258.8,119,256.4,118.9z"/>
</svg>
